<svg width="1600" height="960" viewBox="0 0 1600 960" fill="none" xmlns="http://www.w3.org/2000/svg">
  <rect width="1600" height="960" fill="#F5F8F2"/>
  <rect width="1600" height="960" fill="url(#sky)"/>
  <ellipse cx="1240" cy="124" rx="190" ry="112" fill="#FFF9E4" opacity="0.75"/>
  <path d="M0 506C188 442 315 406 496 428C676 450 742 543 918 552C1124 563 1243 422 1600 446V960H0V506Z" fill="#D9E8D2"/>
  <path d="M0 612C177 553 350 574 515 614C704 659 857 706 1031 683C1217 658 1353 528 1600 553V960H0V612Z" fill="#C4DBBE"/>
  <path d="M0 710C195 674 286 690 480 748C673 805 841 837 1027 809C1244 776 1400 668 1600 688V960H0V710Z" fill="#AAC7A8"/>
  <path d="M0 790C225 762 351 782 552 834C769 890 999 914 1210 880C1390 850 1517 786 1600 770V960H0V790Z" fill="#88A987"/>
  <path d="M167 287C263 247 382 243 472 283" stroke="#B6CDD3" stroke-width="8" stroke-linecap="round" opacity="0.75"/>
  <path d="M872 226C982 183 1129 179 1244 226" stroke="#C2D7D9" stroke-width="10" stroke-linecap="round" opacity="0.65"/>
  <path d="M398 208C481 176 574 177 652 213" stroke="#C9DBE0" stroke-width="6" stroke-linecap="round" opacity="0.85"/>
  <path d="M320 356C412 331 498 329 588 356" stroke="#DCEBE6" stroke-width="5" stroke-linecap="round" opacity="0.7"/>
  <path d="M1025 330C1145 291 1257 290 1374 336" stroke="#E6F0EA" stroke-width="5" stroke-linecap="round" opacity="0.6"/>
  <path d="M102 830C188 804 302 803 389 827" stroke="#6E8F74" stroke-width="4" stroke-linecap="round" opacity="0.32"/>
  <path d="M1277 782C1360 763 1456 768 1529 798" stroke="#6F8E73" stroke-width="4" stroke-linecap="round" opacity="0.32"/>
  <path d="M576 658C607 636 649 632 690 648C724 661 753 682 784 684" stroke="#86A38D" stroke-width="3" stroke-linecap="round" opacity="0.48"/>
  <path d="M962 748C995 720 1043 716 1087 735C1116 748 1139 766 1165 768" stroke="#7E9D86" stroke-width="3" stroke-linecap="round" opacity="0.45"/>
  <defs>
    <linearGradient id="sky" x1="800" y1="0" x2="800" y2="446" gradientUnits="userSpaceOnUse">
      <stop stop-color="#F9FCFF"/>
      <stop offset="0.46" stop-color="#EAF4F7"/>
      <stop offset="1" stop-color="#DFECE7"/>
    </linearGradient>
  </defs>
</svg>
