<svg width="1600" height="960" viewBox="0 0 1600 960" fill="none" xmlns="http://www.w3.org/2000/svg">
  <rect width="1600" height="960" fill="#141A1D"/>
  <rect width="1600" height="960" fill="url(#night)"/>
  <ellipse cx="1190" cy="140" rx="174" ry="98" fill="#E7DCC4" opacity="0.12"/>
  <path d="M0 506C186 452 339 434 497 449C684 467 778 561 944 563C1134 565 1300 433 1600 450V960H0V506Z" fill="#24363A"/>
  <path d="M0 626C191 588 352 606 521 647C709 692 865 725 1046 702C1244 677 1377 562 1600 588V960H0V626Z" fill="#1D2E31"/>
  <path d="M0 726C197 700 337 728 529 778C716 827 872 850 1050 829C1233 807 1415 729 1600 733V960H0V726Z" fill="#162528"/>
  <path d="M0 816C236 789 371 811 565 856C765 903 975 920 1180 892C1378 865 1517 813 1600 794V960H0V816Z" fill="#101B1E"/>
  <path d="M162 292C255 256 369 254 459 289" stroke="#54737C" stroke-width="8" stroke-linecap="round" opacity="0.35"/>
  <path d="M900 236C1006 192 1136 190 1249 231" stroke="#516A73" stroke-width="9" stroke-linecap="round" opacity="0.34"/>
  <path d="M400 214C485 183 575 183 650 216" stroke="#6B8A91" stroke-width="6" stroke-linecap="round" opacity="0.28"/>
  <path d="M306 356C398 328 489 325 586 355" stroke="#4E6870" stroke-width="4" stroke-linecap="round" opacity="0.3"/>
  <path d="M1026 336C1139 294 1264 293 1374 337" stroke="#4D666F" stroke-width="4" stroke-linecap="round" opacity="0.28"/>
  <path d="M610 664C647 637 693 635 734 650C760 660 781 675 806 676" stroke="#5A7772" stroke-width="3" stroke-linecap="round" opacity="0.28"/>
  <path d="M1013 741C1048 712 1089 711 1133 728C1160 739 1188 759 1216 760" stroke="#567269" stroke-width="3" stroke-linecap="round" opacity="0.26"/>
  <path d="M124 829C205 803 311 804 390 825" stroke="#617A72" stroke-width="4" stroke-linecap="round" opacity="0.18"/>
  <path d="M1269 784C1348 764 1447 768 1526 796" stroke="#63766D" stroke-width="4" stroke-linecap="round" opacity="0.16"/>
  <defs>
    <linearGradient id="night" x1="800" y1="0" x2="800" y2="474" gradientUnits="userSpaceOnUse">
      <stop stop-color="#1A2429"/>
      <stop offset="0.52" stop-color="#202C32"/>
      <stop offset="1" stop-color="#24373B"/>
    </linearGradient>
  </defs>
</svg>
